# xmcd
#
# Track frame offsets: 
#        150
#        18153
#        33069
#        47902
#        72658
#        86244
#        106046
#        120319
#        145427
#        161198
#        196205
#        226866
#        239250
#        258630
#
# Disc length: 3967 seconds
#
# Revision: 2
# Processed by: cddbd v1.5.1PL0 Copyright (c) Steve Scherf et al.
# Submitted via: ExactAudioCopy v0.90b4
#
DISCID=bb0f7d0e
DTITLE=Various Artist - 30 Years North Sea Jazz Festival CD 01 1976-1
DTITLE=980
DYEAR=2005
DGENRE=Jazz
TTITLE0=Count Basie - Switch in Time
TTITLE1=Dizzy Gillespie and Stan Getz - Girl of My Dreams
TTITLE2=Sarah Vaughan - Just One of Those Things
TTITLE3=Ella Fitzgerald - Prelude to a Kiss
TTITLE4=Nina Simone - This Year's Kisses
TTITLE5=Oscar Peterson - On a Clear Day you Can See Forever
TTITLE6=Carmen McCrae - Speak Low
TTITLE7=Art Blakey Quartet - Café
TTITLE8=Mary Lou Williams - Nicole
TTITLE9=Gene Krupa and Buddy Rich - Gene's Blues
TTITLE10=Max Roach and Clifford Brown - Blues Walk
TTITLE11=Lionel Hampton - A Taste of Honey
TTITLE12=Freddie Hubbard - Thermo
TTITLE13=Don Cherry - Art Deco
EXTD=YEAR: 2005
EXTT0=
EXTT1=
EXTT2=
EXTT3=
EXTT4=
EXTT5=
EXTT6=
EXTT7=
EXTT8=
EXTT9=
EXTT10=
EXTT11=
EXTT12=
EXTT13=
PLAYORDER=
